<svg width="270" height="110" viewBox="0 0 270 110" fill="none" xmlns="http://www.w3.org/2000/svg">
<path d="M30.9316 4.45856e-06C38.4873 5.17825e-06 45.3197 3.2027 50.2301 8.36715C50.6469 8.80546 51.3531 8.80546 51.7699 8.36716C56.6803 3.20272 63.5127 5.3125e-05 71.0684 4.45856e-06H74.9316C89.8811 5.88251e-06 102 12.537 102 28.002V109C102 109.552 101.552 110 101 110H1C0.447715 110 0 109.552 0 109V28.002C1.24086e-06 12.5371 12.119 0.000100749 27.0684 4.45856e-06H30.9316Z" fill="white" fill-opacity="0.5"/>
<path d="M84 50C84 22.3858 106.386 4.45856e-06 134 4.45856e-06H136C163.614 4.45856e-06 186 22.3858 186 50V109C186 109.552 185.552 110 185 110H85C84.4477 110 84 109.552 84 109V50Z" fill="white" fill-opacity="0.5"/>
<path d="M238 4.45856e-06C255.673 4.45856e-06 270 14.3269 270 32C270 38.8497 267.846 45.1956 264.181 50.4006C263.929 50.7598 263.929 51.2402 264.181 51.5994C267.846 56.8044 270 63.1503 270 70V109C270 109.552 269.552 110 269 110H169C168.448 110 168 109.552 168 109V70C168 63.1505 170.153 56.8043 173.818 51.5994C174.07 51.2402 174.07 50.7598 173.818 50.4007C170.153 45.1957 168 38.8495 168 32C168 14.3269 182.327 4.45856e-06 200 4.45856e-06C206.849 4.45856e-06 213.196 2.1528 218.401 5.8176C218.76 6.07048 219.24 6.07048 219.599 5.8176C224.804 2.1528 231.151 4.45856e-06 238 4.45856e-06Z" fill="white"/>
<path d="M238 8C251.255 8 262 18.7452 262 32C262 39.7329 258.341 46.6098 252.662 50.999C258.342 55.3882 262 62.2659 262 69.999C262 83.2539 251.255 93.999 238 93.999C230.267 93.999 223.389 90.34 219 84.6602C214.611 90.34 207.733 93.999 200 93.999C186.745 93.999 176 83.2539 176 69.999C176 62.2661 179.658 55.3883 185.337 50.999C179.658 46.6098 176 39.7327 176 32C176 18.7452 186.745 8 200 8C207.733 8 214.611 11.6578 219 17.3369C223.389 11.6578 230.267 8 238 8ZM219 42.4004C218.05 42.4004 217.28 43.1703 217.28 44.1201V46.3975C217.28 46.563 217.08 46.6463 216.963 46.5293L215.352 44.9189C214.68 44.2473 213.591 44.2466 212.919 44.918C212.247 45.5896 212.247 46.6799 212.919 47.3516L214.532 48.9639C214.649 49.081 214.566 49.2813 214.4 49.2813H212.12C211.17 49.2813 210.4 50.0511 210.4 51.001C210.401 51.9507 211.17 52.7207 212.12 52.7207H214.398C214.564 52.7207 214.647 52.921 214.53 53.0381L212.919 54.6494C212.247 55.3211 212.247 56.4104 212.919 57.082C213.591 57.7529 214.679 57.7532 215.351 57.082L216.963 55.4688C217.08 55.3518 217.28 55.4343 217.28 55.5996V57.8799C217.28 58.8297 218.05 59.6005 219 59.6006C219.95 59.6005 220.72 58.8297 220.72 57.8799V55.5996C220.72 55.4343 220.92 55.3517 221.037 55.4688L222.648 57.0811C223.32 57.7525 224.409 57.7515 225.081 57.0801C225.752 56.4085 225.752 55.3201 225.081 54.6484L223.472 53.0381C223.355 52.921 223.437 52.7208 223.603 52.7207H225.88C226.83 52.7206 227.6 51.9507 227.601 51.001C227.601 50.0512 226.83 49.2814 225.88 49.2813H223.6C223.434 49.281 223.352 49.0809 223.469 48.9639L225.081 47.3516C225.752 46.6799 225.752 45.5905 225.081 44.9189C224.409 44.2475 223.32 44.2475 222.648 44.9189L221.037 46.5303C220.92 46.6474 220.72 46.564 220.72 46.3984V44.1201C220.72 43.1703 219.95 42.4005 219 42.4004Z" fill="#58A89B"/>
</svg>
