<svg width="255" height="301" viewBox="0 0 255 301" fill="none" xmlns="http://www.w3.org/2000/svg">
<path d="M165.62 64.9941C170.205 58.8569 168.753 51.3682 163.289 47.8962C155.313 42.8287 143.439 45.1142 137.044 53.6748L129.133 64.2659L139.375 70.7727C147.35 75.8402 159.224 73.5547 165.62 64.9941Z" stroke="#F0AF1E" stroke-width="9"/>
<path d="M67.685 62.4015C69.5048 61.3143 71.683 60.792 73.9134 60.792H135.86C138.333 60.792 140.738 61.4394 142.669 62.7428C168.733 80.3382 188.038 110.519 201.892 140.795C204.266 145.982 206.197 151.414 207.352 157C220.666 221.413 174.519 235.753 125.056 235.753H84.5011C28.4117 235.753 -12.9641 211.289 3.74627 148.924C17.8446 114.863 38.5507 79.807 67.685 62.4015Z" fill="#C05421"/>
<path d="M104.377 0C109.124 4.47096e-05 113.31 2.40189 115.786 6.05665C116.609 7.27095 119.191 7.41791 120.144 6.30369C122.671 3.35264 126.424 1.48242 130.613 1.48242C136.677 1.48254 141.825 5.40171 143.664 10.8452C144.009 11.8665 145.235 12.4186 146.231 12.0068C150.089 10.4125 154.64 10.6817 158.404 13.1289L159.504 13.8438C165.577 17.7931 167.3 25.9193 163.35 31.9932L144.393 61.1484C144.389 61.1548 144.386 61.1623 144.386 61.1699C144.386 66.9306 140.85 71.8644 135.829 73.9206C135.651 73.9936 135.486 74.0969 135.343 74.2252C131.036 78.0713 124.532 78.7304 119.459 75.4316L118.359 74.7168C116.963 73.8088 115.796 72.6803 114.875 71.4066C114.289 70.5958 113.101 70.3907 112.283 70.9659C110.045 72.5381 107.319 73.4619 104.377 73.4619C101.581 73.4619 98.9796 72.6287 96.8075 71.1973C96.0096 70.6715 94.8952 70.8683 94.3193 71.6309C93.4265 72.8129 92.3172 73.8627 91.0036 74.7168L89.904 75.4316C84.5877 78.8884 77.7 77.9998 73.4163 73.6516C73.2953 73.5288 73.156 73.4247 73.0038 73.3439C69.0698 71.2557 66.2687 67.317 65.7614 62.6879C65.7343 62.4407 65.6543 62.2014 65.5188 61.9929L46.0124 31.9932C42.0631 25.9192 43.7852 17.7931 49.8591 13.8438L50.9587 13.1289C54.8811 10.5785 59.6587 10.3943 63.615 12.2193C64.6479 12.6958 65.9891 12.1136 66.3378 11.0308C68.1218 5.49085 73.3197 1.48242 79.4528 1.48242C83.5352 1.48254 87.2028 3.2587 89.7251 6.08033C90.5733 7.02925 92.3573 6.92265 93.0875 5.8802C95.5783 2.32469 99.7059 0 104.377 0Z" fill="#C05421"/>
<rect x="60.9507" y="58.5762" width="87.463" height="7.39635" rx="3.69817" fill="#F0AF1E" stroke="#F0AF1E" stroke-width="1.5"/>
<path d="M51.0169 86.7007C50.5813 97.0027 58.9331 106.388 69.9293 107.317C84.5431 108.551 96.5292 98.1443 97.1113 84.3788L97.9123 65.428L78.2003 63.7621C63.5864 62.5276 51.5991 72.9352 51.0169 86.7007Z" stroke="#F0AF1E" stroke-width="9"/>
<path d="M104.836 158.836C105.777 158.836 106.539 159.599 106.539 160.539V161.311C106.539 162.139 107.211 162.811 108.039 162.811H108.81C109.75 162.811 110.513 163.573 110.513 164.514C110.513 165.454 109.75 166.217 108.81 166.217H108.039C107.211 166.217 106.539 166.888 106.539 167.717V168.487C106.539 169.428 105.777 170.19 104.836 170.19C103.895 170.19 103.133 169.428 103.133 168.487V167.717C103.133 166.888 102.461 166.217 101.633 166.217H100.861C99.9211 166.217 99.1584 165.454 99.1583 164.514C99.1583 163.573 99.921 162.811 100.861 162.811H101.633C102.461 162.811 103.133 162.139 103.133 161.311V160.539C103.133 159.598 103.895 158.836 104.836 158.836Z" fill="#C05421"/>
<rect x="100.24" y="23.7236" width="8.8963" height="19.2754" rx="4.44815" fill="#9F3300"/>
<rect width="8.89631" height="19.2754" rx="4.44815" transform="matrix(0.965925 0.25882 -0.258818 0.965926 127.464 25.2061)" fill="#9F3300"/>
<rect width="8.89631" height="19.2754" rx="4.44815" transform="matrix(-0.965925 0.25882 0.258818 0.965926 82.1381 25.2061)" fill="#9F3300"/>
<path d="M149.839 285.967C150.253 286.684 150.007 287.601 149.29 288.016L140.123 293.309C139.406 293.723 138.488 293.477 138.074 292.76L129.936 278.664C129.059 277.145 126.734 278.109 127.188 279.803L131.367 295.399C131.582 296.199 131.107 297.021 130.307 297.236L120.082 299.975C119.282 300.19 118.46 299.715 118.245 298.914L114.113 283.49C113.659 281.796 111.164 282.125 111.164 283.879V298.263C111.164 299.091 110.492 299.763 109.664 299.763H99.0789C98.2505 299.763 97.5789 299.091 97.5789 298.263V284.678C97.5789 282.924 95.0839 282.595 94.63 284.29L90.7112 298.914C90.4968 299.715 89.6744 300.19 88.8742 299.975L78.6499 297.236C77.8497 297.021 77.3748 296.199 77.5892 295.399L81.1447 282.128C81.5986 280.434 79.2736 279.471 78.3967 280.99L71.6023 292.759C71.1881 293.477 70.2707 293.723 69.5532 293.309L60.3857 288.016C59.6683 287.601 59.4225 286.684 59.8367 285.967L92.2996 229.739C92.7138 229.021 93.6312 228.775 94.3486 229.189L98.5843 231.635C98.8123 231.767 99.071 231.836 99.3343 231.836H110.342C110.605 231.836 110.864 231.767 111.092 231.635L115.327 229.19C116.044 228.775 116.962 229.021 117.376 229.739L149.839 285.967Z" fill="#F0AF1E"/>
<path d="M82.4998 234.001C82.4998 230.687 85.1861 228.001 88.4998 228.001H123.375C126.688 228.001 129.375 230.687 129.375 234.001V240.001C129.375 241.658 128.032 243.001 126.375 243.001H85.4998C83.843 243.001 82.4998 241.658 82.4998 240.001V234.001Z" fill="#47413C"/>
<rect x="90.8824" y="176.408" width="53.6084" height="53.4083" rx="26.7041" transform="rotate(-180 90.8824 176.408)" fill="white"/>
<rect x="81.5012" y="161.454" width="34.8454" height="34.7154" rx="17.3577" transform="rotate(-180 81.5012 161.454)" fill="#333333"/>
<rect width="53.6084" height="53.4083" rx="26.7041" transform="matrix(-0.967305 0.253614 -0.253612 -0.967306 143.279 168.737)" fill="white"/>
<rect width="34.8455" height="34.7154" rx="17.3577" transform="matrix(-0.967305 0.253614 -0.253612 -0.967306 130.412 156.651)" fill="#333333"/>
<path d="M215.49 162.547C209.761 153.905 200.984 153.806 195.888 162.325C192.391 168.17 190.955 175.995 191.5 183.705C191.595 185.049 190.001 186.004 188.839 185.321C187.832 184.729 186.805 184.206 185.764 183.761C176.636 179.859 169.59 185.094 170.028 195.453C170.247 200.632 171.894 206.045 174.513 211.019C175.156 212.24 174.008 213.808 172.641 213.622C172.275 213.572 171.909 213.53 171.545 213.496C161.66 212.578 156.559 219.719 160.15 229.446C162.915 236.938 169.073 243.922 176.297 248.561C185.063 254.191 195.126 258.751 201.65 266.873L206.155 272.479C206.226 272.567 206.266 272.82 206.267 272.933C206.27 273.4 206.851 273.457 207.143 273.092L211.511 267.655C218.036 259.533 228.098 254.973 236.864 249.344C244.088 244.705 250.246 237.72 253.012 230.228C256.603 220.501 251.501 213.36 241.616 214.277C240.773 214.356 239.923 214.478 239.071 214.641C237.619 214.92 236.279 213.123 237.007 211.836C240.988 204.805 243.164 196.472 242.463 189.024C241.492 178.701 233.802 174.471 225.287 179.575C224.812 179.86 224.343 180.163 223.881 180.482C222.848 181.196 221.331 180.535 221.194 179.287C220.527 173.186 218.613 167.256 215.49 162.547Z" fill="#23361A"/>
<rect width="3.3418" height="50.1273" rx="1.6709" transform="matrix(-1 -8.74232e-08 -8.74223e-08 1 208.212 198.608)" fill="#9DB098"/>
</svg>
