<svg width="17" height="18" viewBox="0 0 17 18" fill="none" xmlns="http://www.w3.org/2000/svg">
<path d="M8.53613 0C9.76619 0.000196473 10.7637 0.99744 10.7637 2.22754V2.72266C10.7636 3.73728 10.0842 4.59149 9.15625 4.86035H15.4629C15.9599 4.86035 16.3631 5.26283 16.3633 5.75977C16.3633 8.88434 14.7897 11.5942 12.4863 12.9453C13.7661 13.9844 14.5859 15.5799 14.5859 17.3701C14.5859 17.718 14.3039 18 13.9561 18H11.79C11.6165 17.9999 11.4756 17.8591 11.4756 17.6855C11.4756 16.1198 10.2213 14.8506 8.6748 14.8506H8.05273C6.50648 14.8508 5.25293 16.1199 5.25293 17.6855C5.25291 17.8592 5.11213 18 4.93848 18H2.77148C2.42373 17.9999 2.14162 17.7179 2.1416 17.3701C2.1416 15.5803 2.9619 13.9854 4.24121 12.9463C1.93724 11.5955 0.363281 8.88487 0.363281 5.75977C0.363428 5.26283 0.766704 4.86035 1.26367 4.86035H7.48145C6.55346 4.59149 5.87409 3.73729 5.87402 2.72266V2.22754C5.87402 0.997433 6.8715 0.000184498 8.10156 0L8.53613 0Z" fill="#23361A"/>
</svg>
